<svg width="60" height="60" viewBox="0 0 60 60" fill="none" xmlns="http://www.w3.org/2000/svg">
<rect width="60" height="60" rx="30" fill="white"/>
<path d="M27 27.9921C27 26.3385 28.3437 24.9948 30 24.9948C31.6563 24.9948 33 26.3385 33 27.9921C33 29.6458 31.6563 30.9896 30 30.9896C28.3437 30.9896 27 29.6458 27 27.9921Z" fill="#B99674"/>
<path fill-rule="evenodd" clip-rule="evenodd" d="M17 27.9921C17 20.8175 22.8223 15 30 15C37.1777 15 43 20.8175 43 27.9921C43 33.3402 40.3234 37.5771 37.4569 40.4418C36.0203 41.8775 34.5155 42.9905 33.2265 43.7502C32.5823 44.1299 31.9803 44.4282 31.457 44.6348C30.9629 44.8298 30.4442 44.9818 30 44.9818C29.5558 44.9818 29.0371 44.8298 28.543 44.6348C28.0197 44.4282 27.4177 44.1299 26.7735 43.7502C25.4845 42.9905 23.9797 41.8775 22.5431 40.4418C19.6766 37.5771 17 33.3402 17 27.9921ZM30 22.9948C27.2403 22.9948 25 25.2327 25 27.9921C25 30.7516 27.2403 32.9896 30 32.9896C32.7597 32.9896 35 30.7516 35 27.9921C35 25.2327 32.7597 22.9948 30 22.9948Z" fill="#B99674"/>
</svg>
