<svg width="61" height="60" viewBox="0 0 61 60" fill="none" xmlns="http://www.w3.org/2000/svg">
<rect x="0.5" width="60" height="60" rx="30" fill="white"/>
<path d="M20.5 15C17.7386 15 15.5 17.2386 15.5 20V24C15.5 35.598 24.902 45 36.5 45H40.5C43.2614 45 45.5 42.7614 45.5 40V37.2361C45.5 36.0998 44.858 35.061 43.8416 34.5528L39.0098 32.1369C37.3769 31.3204 35.3994 32.1395 34.8221 33.8715L34.2266 35.6581C34.0003 36.3369 33.3039 36.741 32.6023 36.6007C28.2106 35.7223 24.7777 32.2894 23.8993 27.8977C23.759 27.1961 24.1631 26.4997 24.8419 26.2734L27.0592 25.5344C28.5464 25.0386 29.4012 23.4815 29.021 21.9607L27.8489 17.2724C27.515 15.9369 26.315 15 24.9384 15H20.5Z" fill="#B99674"/>
</svg>
